
<svg xmlns="http://www.w3.org/2000/svg" xml:space="preserve" width="6.82666in" height="6.82666in" style="shape-rendering:geometricPrecision; text-rendering:geometricPrecision; image-rendering:optimizeQuality; fill-rule:evenodd; clip-rule:evenodd"
viewBox="0 0 6.82666 6.82666"
 xmlns:xlink="http://www.w3.org/1999/xlink">
 <defs>
  <style type="text/css">
   <![CDATA[
    .fil2 {fill:none}
    .fil0 {fill:none}
    .fil1 {fill:#none;fill-rule:nonzero}
   ]]>
  </style>
 </defs>
 <rect class="fil0" width="6.82666" height="6.82666"/>
 <g id="Layer_x0020_1">
  <metadata id="CorelCorpID_0Corel-Layer"/>
  <path class="fil1" d="M3.41333 1.91598c0.413465,0 0.787807,0.167602 1.05878,0.438571 0.270969,0.270969 0.438571,0.645311 0.438571,1.05878 0,0.413465 -0.167602,0.787807 -0.438571,1.05878 -0.270969,0.270969 -0.645311,0.438571 -1.05878,0.438571 -0.413465,0 -0.787807,-0.167602 -1.05878,-0.438571 -0.270969,-0.270969 -0.438571,-0.645311 -0.438571,-1.05878 0,-0.413465 0.167602,-0.787807 0.438571,-1.05878 0.270969,-0.270969 0.645311,-0.438571 1.05878,-0.438571zm0.907941 0.589406c-0.23235,-0.23235 -0.553358,-0.376067 -0.907941,-0.376067 -0.354583,0 -0.675591,0.143717 -0.907941,0.376067 -0.23235,0.23235 -0.376067,0.553358 -0.376067,0.907941 0,0.354583 0.143717,0.675591 0.376067,0.907941 0.23235,0.23235 0.553358,0.376067 0.907941,0.376067 0.354583,0 0.675591,-0.143717 0.907941,-0.376067 0.23235,-0.23235 0.376067,-0.553358 0.376067,-0.907941 0,-0.354583 -0.143717,-0.675591 -0.376067,-0.907941z"/>
  <path class="fil1" d="M0.959996 3.30666c-0.0589094,0 -0.106669,0.0477598 -0.106669,0.106669 0,0.0589094 0.0477598,0.106669 0.106669,0.106669l0.479823 0c0.0589094,0 0.106669,-0.0477598 0.106669,-0.106669 0,-0.0589094 -0.0477598,-0.106669 -0.106669,-0.106669l-0.479823 0z"/>
  <path class="fil1" d="M5.86666 3.52c0.0589094,0 0.106669,-0.0477598 0.106669,-0.106669 0,-0.0589094 -0.0477598,-0.106669 -0.106669,-0.106669l-0.479823 0c-0.0589094,0 -0.106669,0.0477598 -0.106669,0.106669 0,0.0589094 0.0477598,0.106669 0.106669,0.106669l0.479823 0z"/>
  <path class="fil1" d="M1.87726 1.72641c-0.0416496,-0.0416496 -0.109185,-0.0416496 -0.150835,0 -0.0416496,0.0416496 -0.0416496,0.109185 0,0.150835l0.286453 0.286465c0.0416496,0.0416496 0.109185,0.0416496 0.150835,0 0.0416496,-0.0416496 0.0416496,-0.109185 0,-0.150835l-0.286453 -0.286465z"/>
  <path class="fil1" d="M4.94942 5.10025c0.0416496,0.0416496 0.109185,0.0416496 0.150835,0 0.0416496,-0.0416496 0.0416496,-0.109185 0,-0.150835l-0.286461 -0.286461c-0.0416496,-0.0416496 -0.109185,-0.0416496 -0.150835,0 -0.0416496,0.0416496 -0.0416496,0.109185 0,0.150835l0.286461 0.286461z"/>
  <path class="fil1" d="M3.52 0.971984c0,-0.0589094 -0.0477598,-0.106669 -0.106669,-0.106669 -0.0589094,0 -0.106669,0.0477598 -0.106669,0.106669l0 0.479823c0,0.0589094 0.0477598,0.106669 0.106669,0.106669 0.0589094,0 0.106669,-0.0477598 0.106669,-0.106669l0 -0.479823z"/>
  <path class="fil1" d="M3.30666 5.85468c0,0.0589094 0.0477598,0.106669 0.106669,0.106669 0.0589094,0 0.106669,-0.0477598 0.106669,-0.106669l0 -0.479823c0,-0.0589094 -0.0477598,-0.106669 -0.106669,-0.106669 -0.0589094,0 -0.106669,0.0477598 -0.106669,0.106669l0 0.479823z"/>
  <path class="fil1" d="M5.10025 1.87724c0.0416496,-0.0416496 0.0416496,-0.109185 0,-0.150835 -0.0416496,-0.0416496 -0.109185,-0.0416496 -0.150835,0l-0.286461 0.286465c-0.0416496,0.0416496 -0.0416496,0.109185 0,0.150835 0.0416496,0.0416496 0.109185,0.0416496 0.150835,0l0.286461 -0.286465z"/>
  <path class="fil1" d="M1.72642 4.94941c-0.0416496,0.0416496 -0.0416496,0.109185 0,0.150835 0.0416496,0.0416496 0.109185,0.0416496 0.150835,0l0.286457 -0.286461c0.0416496,-0.0416496 0.0416496,-0.109185 0,-0.150835 -0.0416496,-0.0416496 -0.109185,-0.0416496 -0.150835,0l-0.286457 0.286461z"/>
  <rect class="fil2" width="6.82666" height="6.82666"/>
 </g>
</svg>
